<?xml version="1.0" standalone="no"?>
<!DOCTYPE svg PUBLIC "-//W3C//DTD SVG 20010904//EN"
 "http://www.w3.org/TR/2001/REC-SVG-20010904/DTD/svg10.dtd">
<svg version="1.0" xmlns="http://www.w3.org/2000/svg"
 width="944.000000pt" height="942.000000pt" viewBox="0 0 944.000000 942.000000"
 preserveAspectRatio="xMidYMid meet">
<metadata>
Created by potrace 1.16, written by Peter Selinger 2001-2019
</metadata>
<g transform="translate(0.000000,942.000000) scale(0.100000,-0.100000)"
fill="#000000" stroke="none">
<path d="M2278 6933 c-68 -98 -204 -293 -303 -433 -98 -140 -179 -256 -180
-258 -1 -1 -131 -22 -289 -46 -158 -25 -289 -46 -291 -48 -2 -2 18 -224 45
-493 27 -270 63 -642 81 -827 32 -326 34 -337 56 -349 13 -7 22 -18 20 -23
-19 -55 -239 -948 -234 -952 3 -4 261 57 573 135 351 88 571 138 578 133 169
-134 350 -272 355 -271 3 0 44 45 91 100 46 54 87 99 91 99 4 0 134 -140 290
-311 156 -172 304 -334 329 -361 l45 -49 133 89 133 89 562 6 c543 5 564 4
632 -16 39 -11 72 -21 74 -23 2 -2 -24 -36 -58 -77 -33 -40 -61 -77 -61 -80 0
-4 95 -7 210 -7 162 0 210 -3 210 -12 -1 -7 -9 -101 -20 -208 -18 -194 -19
-196 -69 -317 -28 -67 -51 -124 -51 -127 0 -5 45 7 280 77 102 30 361 107 576
171 l392 116 328 -108 c233 -77 331 -105 336 -97 4 7 56 128 116 271 117 279
98 248 341 574 30 41 57 77 58 79 2 2 76 19 165 38 89 19 164 36 166 38 3 2
-14 27 -37 56 -44 56 -49 69 -26 69 12 0 624 76 664 83 13 2 -158 97 -980 548
l-105 58 12 133 c6 76 23 176 38 232 15 55 28 101 29 102 1 1 38 12 82 24 44
13 84 27 89 31 5 4 -12 68 -39 144 l-48 136 67 261 c37 143 66 261 64 263 -2
1 -50 -3 -108 -11 -58 -7 -117 -13 -132 -14 l-26 0 13 56 c7 31 17 59 21 63 5
4 89 69 187 145 97 75 177 141 177 145 0 5 -102 75 -227 156 -125 81 -233 153
-241 161 -7 8 -17 14 -22 14 -5 0 -71 40 -147 90 l-138 89 -95 261 c-55 153
-97 256 -101 248 -4 -7 -26 -76 -49 -153 -24 -77 -46 -145 -49 -151 -4 -7 -61
24 -151 82 -79 52 -147 94 -150 94 -4 0 -26 -62 -50 -137 -24 -76 -45 -140
-46 -142 -2 -2 -52 -17 -113 -32 l-109 -29 -328 120 c-181 66 -339 125 -352
130 -13 6 -27 10 -33 10 -6 0 -7 -51 -3 -143 l7 -143 -564 -18 -564 -18 -260
31 c-605 71 -906 104 -911 99 -3 -3 2 -47 11 -98 9 -51 15 -93 13 -95 -2 -1
-66 -19 -143 -40 l-139 -37 -21 26 -21 27 -73 -16 c-40 -8 -78 -15 -85 -15 -7
0 -29 35 -48 78 -48 103 -320 676 -323 680 -2 2 -59 -77 -127 -175z m122
-1017 c57 -120 77 -155 89 -151 9 3 66 14 126 25 121 22 108 25 150 -34 13
-17 24 -15 262 49 136 37 304 82 372 101 68 19 125 33 126 32 10 -10 224 -352
222 -354 -1 -1 -92 -16 -202 -33 -110 -17 -212 -34 -227 -37 l-26 -5 35 -104
34 -103 147 -83 c81 -45 149 -84 151 -85 4 -4 -119 -467 -127 -476 -4 -4 -52
65 -107 153 -95 152 -115 181 -115 162 0 -17 -123 -828 -126 -832 -4 -4 -110
109 -146 154 -15 20 -24 99 -58 541 -22 286 -43 537 -45 560 l-6 41 -86 27
c-47 14 -88 24 -91 22 -4 -4 12 -341 24 -511 l6 -80 -99 -54 c-54 -30 -100
-56 -101 -57 -2 -1 51 -79 118 -173 l121 -170 -98 -115 c-54 -63 -101 -115
-104 -115 -3 -1 -46 29 -94 65 l-88 67 -270 -67 c-148 -37 -271 -65 -274 -63
-2 3 25 117 61 254 l64 250 -74 42 c-40 23 -75 45 -78 49 -8 13 -89 879 -84
893 4 10 52 22 157 38 l151 23 111 159 c61 88 114 157 118 155 4 -3 40 -75 81
-160z m4545 93 c53 -34 95 -65 93 -69 -2 -5 -38 -36 -81 -69 l-78 -60 38 -10
c21 -5 56 -13 78 -17 22 -4 43 -8 46 -10 6 -3 -60 -312 -74 -347 -3 -7 -23
-19 -46 -27 -44 -14 -51 -28 -67 -126 -6 -39 -4 -42 22 -52 16 -5 37 -13 46
-17 14 -5 21 8 44 84 15 50 30 91 34 91 7 0 82 -207 84 -234 1 -17 -20 -26
-147 -65 -81 -24 -149 -42 -152 -39 -3 3 -19 76 -35 163 -16 86 -30 158 -32
160 -9 7 -68 13 -68 7 0 -4 5 -45 11 -91 l10 -84 -68 -69 c-44 -45 -81 -73
-106 -80 -20 -6 -39 -9 -42 -6 -3 2 20 71 50 153 30 81 55 153 55 161 0 7 -13
22 -29 33 -24 18 -32 35 -50 118 -12 54 -25 105 -28 113 -16 39 -32 -141 -32
-357 -1 -128 -3 -233 -6 -233 -3 0 -51 23 -107 51 l-102 51 49 25 c28 14 51
26 52 27 2 2 -8 34 -20 72 -14 41 -30 70 -39 72 -11 2 -37 -39 -89 -143 -41
-80 -75 -139 -77 -131 -2 8 6 113 16 233 19 211 20 227 3 481 -11 172 -13 262
-6 262 5 0 34 -9 63 -20 l53 -20 119 30 c105 27 123 29 143 17 12 -8 72 -27
132 -42 61 -16 111 -29 113 -31 2 -1 -10 -29 -27 -63 -17 -33 -31 -62 -31 -65
0 -5 91 -28 95 -24 2 2 20 57 40 123 38 122 43 135 51 135 2 0 47 -28 99 -61z
m-2801 -30 l261 -31 340 12 c187 7 500 18 695 24 195 7 358 10 361 7 3 -3 -20
-229 -53 -501 -66 -555 -65 -533 -28 -980 11 -135 20 -252 20 -261 0 -14 -60
-16 -577 -22 l-578 -7 -277 -50 c-153 -27 -283 -50 -289 -50 -8 0 -10 25 -5
88 4 48 13 186 21 307 l14 220 -59 375 c-33 206 -77 489 -100 629 -22 139 -40
257 -40 262 0 13 5 12 294 -22z m2962 -1011 c-70 -252 -95 -382 -111 -588 -9
-118 -20 -225 -23 -237 -7 -21 -8 -21 -107 19 l-100 41 -274 -32 c-151 -17
-275 -30 -276 -29 -2 2 -13 95 -25 208 -17 166 -31 242 -71 399 -27 107 -48
196 -45 198 2 2 82 -4 177 -13 l174 -18 300 36 c165 20 320 36 344 37 40 1 43
-1 37 -21z m-278 -918 c70 -38 125 -70 122 -71 -3 -1 -63 -9 -134 -19 -119
-16 -130 -20 -152 -46 -13 -16 -23 -33 -24 -38 0 -8 127 -4 295 10 l70 6 34
-47 c18 -25 31 -48 29 -50 -2 -3 -49 -14 -103 -25 -93 -19 -114 -26 -104 -33
2 -2 21 -16 43 -31 21 -16 69 -44 107 -62 38 -19 69 -37 69 -41 0 -13 -104
-163 -113 -163 -5 0 -35 20 -67 45 -32 25 -63 45 -69 45 -12 0 -15 -69 -3 -86
4 -6 47 -21 95 -34 57 -15 86 -27 83 -35 -2 -7 -27 -43 -54 -81 -27 -38 -60
-98 -73 -133 -13 -35 -29 -65 -36 -68 -7 -3 -90 21 -185 53 l-172 57 44 13
c25 7 80 20 123 29 42 9 77 20 77 24 0 3 -10 18 -23 33 -21 26 -25 27 -140 29
l-118 2 -111 -104 c-90 -84 -120 -107 -160 -118 -27 -7 -51 -11 -54 -8 -3 3
11 45 32 93 32 78 66 160 94 231 14 33 -18 47 -121 53 l-86 5 93 114 c52 62
94 117 94 121 0 5 -43 18 -95 30 l-95 22 29 37 30 37 175 24 c165 21 174 24
163 41 -7 11 -14 19 -17 19 -6 0 -282 29 -290 31 -9 1 535 157 553 158 10 1
75 -30 145 -69z m-2130 -437 l2 -193 -35 0 -35 0 0 196 0 195 33 -3 32 -3 3
-192z m682 132 c0 -36 4 -65 8 -65 5 0 33 28 64 63 48 54 60 62 91 63 21 0 37
-1 37 -4 0 -3 -27 -36 -60 -73 -33 -37 -60 -72 -60 -77 0 -6 27 -57 60 -114
33 -56 60 -105 60 -108 0 -3 -16 -4 -36 -2 -32 4 -39 11 -81 83 -25 44 -49 79
-52 79 -21 0 -31 -31 -31 -97 l0 -73 -29 0 c-19 0 -31 6 -33 16 -2 10 -2 97 0
195 l3 179 29 0 30 0 0 -65z m-1700 35 c0 -18 -7 -20 -85 -20 -73 0 -86 -3
-95 -19 -29 -55 4 -101 73 -101 48 0 102 -23 116 -48 20 -37 13 -113 -11 -139
-20 -21 -30 -23 -130 -23 -101 0 -108 1 -108 20 0 18 7 20 79 20 44 0 86 3 95
6 20 8 22 86 4 102 -7 5 -44 15 -82 20 -90 14 -106 29 -106 102 0 43 5 61 20
78 19 20 31 22 125 22 98 0 105 -1 105 -20z m1600 0 c0 -17 -7 -20 -45 -20
l-45 0 -2 -167 -3 -168 -35 0 -35 0 -3 168 -2 167 -45 0 c-38 0 -45 3 -45 20
0 19 7 20 130 20 123 0 130 -1 130 -20z m570 0 c0 -18 -7 -20 -74 -20 -102 0
-106 -2 -106 -61 0 -54 -10 -48 110 -64 65 -9 90 -36 90 -100 0 -38 -6 -60
-21 -79 -20 -25 -24 -26 -130 -26 -102 0 -109 1 -109 20 0 18 7 20 79 20 44 0
86 3 95 6 20 8 22 86 4 102 -7 5 -44 15 -82 20 -90 14 -106 30 -106 100 0 43
5 61 22 79 20 21 30 23 125 23 96 0 103 -1 103 -20z m-1450 -40 c0 -43 3 -50
20 -50 12 0 20 -7 20 -16 0 -9 -9 -18 -20 -21 -18 -5 -20 -14 -20 -94 0 -82 2
-89 20 -89 13 0 20 -7 20 -20 0 -16 -7 -20 -37 -20 -62 0 -73 19 -73 127 0 86
-1 93 -20 93 -13 0 -20 7 -20 20 0 13 7 20 20 20 17 0 20 7 20 50 l0 50 35 0
35 0 0 -50z m160 0 c0 -43 3 -50 20 -50 13 0 20 -7 20 -20 0 -13 -7 -20 -20
-20 -18 0 -20 -7 -20 -86 0 -77 2 -86 20 -91 11 -3 20 -14 20 -24 0 -15 -7
-19 -39 -19 -58 0 -71 24 -71 132 0 72 -3 88 -15 88 -8 0 -15 9 -15 20 0 11 7
20 15 20 11 0 15 11 15 43 0 51 4 57 42 57 27 0 28 -2 28 -50z m-599 -79 c24
-24 29 -38 29 -75 l0 -46 -90 0 c-82 0 -90 -2 -90 -19 0 -38 27 -51 106 -51
67 0 74 -2 74 -20 0 -19 -7 -20 -91 -20 -50 0 -99 5 -110 10 -46 25 -64 125
-35 194 19 45 39 55 114 56 57 0 67 -3 93 -29z m278 3 c17 -22 21 -41 21 -105
0 -43 4 -89 9 -103 l10 -25 -106 0 c-129 -1 -143 7 -143 80 0 66 16 79 96 79
l65 0 -3 28 c-3 26 -5 27 -75 30 -65 3 -73 5 -73 22 0 18 7 20 89 20 85 0 91
-1 110 -26z m703 15 c24 -13 48 -67 48 -109 l0 -30 -96 0 c-94 0 -95 0 -89
-22 12 -38 34 -48 112 -48 66 0 73 -2 73 -20 0 -19 -7 -20 -96 -20 -92 0 -97
1 -125 29 -27 27 -29 35 -29 101 0 66 2 74 29 101 26 26 36 29 91 29 34 0 70
-5 82 -11z"/>
<path d="M2417 5513 c-4 -3 -7 -106 -7 -228 l0 -222 31 -7 c17 -3 46 -6 64 -6
28 0 34 4 39 28 5 24 21 327 21 392 0 22 -6 25 -60 37 -71 14 -80 15 -88 6z"/>
<path d="M2024 5484 c3 -16 22 -123 42 -239 20 -115 40 -214 44 -218 4 -5 17
0 28 11 17 17 20 39 26 178 4 87 9 184 13 215 l5 56 -58 7 c-32 4 -69 9 -82
13 -22 5 -24 3 -18 -23z"/>
<path d="M2265 4718 c-44 -50 -83 -96 -87 -103 -5 -8 28 -29 107 -65 64 -29
118 -51 121 -48 2 3 -4 61 -16 129 -27 164 -30 179 -38 178 -4 0 -43 -41 -87
-91z"/>
<path d="M6466 5969 c-14 -85 -27 -221 -23 -225 4 -4 102 40 115 51 3 3 -76
196 -83 204 -2 1 -6 -12 -9 -30z"/>
<path d="M6711 5659 c-52 -11 -95 -20 -97 -22 -1 -1 -5 -31 -9 -66 l-7 -63 38
6 c22 3 79 8 127 12 l88 6 -6 47 c-11 82 -16 101 -28 100 -7 -1 -54 -10 -106
-20z"/>
<path d="M4993 5747 c-172 -5 -313 -13 -313 -16 0 -4 37 -40 81 -81 l82 -74
126 34 c213 56 221 57 240 35 37 -44 201 -198 206 -194 4 5 65 288 65 304 0 6
-65 5 -487 -8z"/>
<path d="M4240 5660 c0 -12 57 -343 66 -379 5 -23 6 -23 23 10 87 166 158 300
173 328 16 27 17 36 6 42 -19 13 -268 11 -268 -1z"/>
<path d="M4832 5430 c-57 -4 -105 -10 -108 -12 -4 -5 107 -106 133 -122 12 -7
77 38 163 113 l35 30 -60 -1 c-33 0 -106 -4 -163 -8z"/>
<path d="M5410 5357 c-144 -66 -226 -104 -284 -131 l-69 -32 154 -44 c85 -24
175 -45 202 -48 l47 -5 0 137 c0 145 0 146 -50 123z"/>
<path d="M4417 5235 c-55 -23 -103 -47 -107 -51 -8 -8 -52 -315 -46 -321 5 -6
375 351 370 358 -6 11 -100 59 -111 58 -4 0 -52 -20 -106 -44z"/>
<path d="M4812 5037 c-39 -22 -69 -44 -65 -48 5 -3 87 -37 183 -74 96 -37 183
-72 194 -77 15 -8 3 -19 -78 -65 -54 -30 -95 -57 -92 -60 3 -3 101 -10 218
-17 l213 -11 -93 -60 c-51 -33 -129 -84 -175 -112 l-82 -53 223 0 c205 0 222
1 222 18 -1 47 -38 464 -42 468 -3 2 -35 -18 -71 -46 -36 -27 -69 -50 -72 -50
-3 0 -50 25 -103 56 -234 137 -300 174 -303 173 -2 0 -37 -19 -77 -42z"/>
<path d="M4469 4868 l-157 -61 -5 -61 c-4 -33 -9 -116 -13 -183 l-7 -123 34 0
c41 0 502 40 506 44 2 2 -41 24 -94 49 -323 151 -366 174 -342 180 13 3 104
15 202 28 97 13 177 27 177 30 0 14 -121 159 -133 158 -6 -1 -82 -28 -168 -61z"/>
<path d="M6498 4763 l-126 -4 -6 -67 c-3 -37 -8 -129 -12 -204 l-6 -138 243 6
c134 4 245 7 245 8 1 1 -33 399 -35 404 -1 1 -40 1 -88 0 -49 -1 -145 -4 -215
-5z"/>
<path d="M6508 3527 c-60 -5 -108 -13 -108 -16 0 -4 13 -20 30 -36 27 -26 34
-28 101 -26 91 3 114 12 128 52 6 17 11 34 11 35 0 5 -29 3 -162 -9z"/>
</g>
</svg>
